<?xml version="1.0" encoding="utf-8"?><svg width="auto" height="5320" style="overflow:visible " version="1.1" xmlns="http://www.w3.org/2000/svg"><rect x="20" y="20" width="200" height="40" style="fill:white;stroke:black;stroke-width:1" /><text x="30" y="30" font-size="10" style="fill:blue">rutas</text><rect x="240" y="20" width="200" height="40" style="fill:white;stroke:black;stroke-width:1" /><text x="250" y="30" font-size="10" style="fill:blue">ruta</text><path d="M220 40 C240 40 220 40 240 40" style="fill:transparent;stroke:black" /><text x="250" y="40" font-size="8" style="fill:black">fechainicio: 1-1-2023</text><text x="250" y="50" font-size="8" style="fill:black">horainicio: 18:00</text><text x="250" y="60" font-size="8" style="fill:black">tiemporuta: 2 horas</text><rect x="460" y="20" width="200" height="40" style="fill:white;stroke:black;stroke-width:1" /><text x="470" y="30" font-size="10" style="fill:blue">nombreruta</text><path d="M440 40 C460 40 440 40 460 40" style="fill:transparent;stroke:black" /><rect x="526" y="20" width="137" height="40" style="fill:green;stroke:black;stroke-width:1" /><text x="536" y="30" font-size="8" style="fill:white"> Ruta 1</text><rect x="460" y="70" width="200" height="40" style="fill:white;stroke:black;stroke-width:1" /><text x="470" y="80" font-size="10" style="fill:blue">tiporuta</text><path d="M440 40 C460 40 440 90 460 90" style="fill:transparent;stroke:black" /><text x="470" y="90" font-size="8" style="fill:black">transporte: a pie</text><rect x="460" y="120" width="200" height="40" style="fill:white;stroke:black;stroke-width:1" /><text x="470" y="130" font-size="10" style="fill:blue">agencia</text><path d="M440 40 C460 40 440 140 460 140" style="fill:transparent;stroke:black" /><rect x="526" y="120" width="137" height="40" style="fill:green;stroke:black;stroke-width:1" /><text x="536" y="130" font-size="8" style="fill:white">sin agencia</text><rect x="460" y="170" width="200" height="40" style="fill:white;stroke:black;stroke-width:1" /><text x="470" y="180" font-size="10" style="fill:blue">descripcion</text><path d="M440 40 C460 40 440 190 460 190" style="fill:transparent;stroke:black" /><rect x="526" y="170" width="137" height="40" style="fill:green;stroke:black;stroke-width:1" /><text x="536" y="180" font-size="8" style="fill:white">Ruta de prueba que más adelante 
            será completada con una ruta realista</text><rect x="460" y="220" width="200" height="40" style="fill:white;stroke:black;stroke-width:1" /><text x="470" y="230" font-size="10" style="fill:blue">recomendacionpersonas</text><path d="M440 40 C460 40 440 240 460 240" style="fill:transparent;stroke:black" /><rect x="526" y="220" width="137" height="40" style="fill:green;stroke:black;stroke-width:1" /><text x="536" y="230" font-size="8" style="fill:white"> Perfecta para todas las edades</text><rect x="460" y="270" width="200" height="40" style="fill:white;stroke:black;stroke-width:1" /><text x="470" y="280" font-size="10" style="fill:blue">lugarinicio</text><path d="M440 40 C460 40 440 290 460 290" style="fill:transparent;stroke:black" /><text x="470" y="290" font-size="8" style="fill:black">direccion: calle Por Defecto 3</text><text x="470" y="300" font-size="8" style="fill:black">longitud: 1</text><text x="470" y="310" font-size="8" style="fill:black">latitud: 2</text><text x="470" y="320" font-size="8" style="fill:black">altitud: 2</text><rect x="526" y="270" width="137" height="40" style="fill:green;stroke:black;stroke-width:1" /><text x="536" y="280" font-size="8" style="fill:white">sitio Por Defecto</text><rect x="460" y="320" width="200" height="40" style="fill:white;stroke:black;stroke-width:1" /><text x="470" y="330" font-size="10" style="fill:blue">referencias</text><path d="M440 40 C460 40 440 340 460 340" style="fill:transparent;stroke:black" /><rect x="680" y="320" width="200" height="40" style="fill:white;stroke:black;stroke-width:1" /><text x="690" y="330" font-size="10" style="fill:blue">referencia</text><path d="M660 340 C680 340 660 340 680 340" style="fill:transparent;stroke:black" /><rect x="460" y="420" width="200" height="40" style="fill:white;stroke:black;stroke-width:1" /><text x="470" y="430" font-size="10" style="fill:blue">recomendacion</text><path d="M440 40 C460 40 440 440 460 440" style="fill:transparent;stroke:black" /><rect x="526" y="420" width="137" height="40" style="fill:green;stroke:black;stroke-width:1" /><text x="536" y="430" font-size="8" style="fill:white">8</text><rect x="460" y="470" width="200" height="40" style="fill:white;stroke:black;stroke-width:1" /><text x="470" y="480" font-size="10" style="fill:blue">hitos</text><path d="M440 40 C460 40 440 490 460 490" style="fill:transparent;stroke:black" /><rect x="680" y="470" width="200" height="40" style="fill:white;stroke:black;stroke-width:1" /><text x="690" y="480" font-size="10" style="fill:blue">hito</text><path d="M660 490 C680 490 660 490 680 490" style="fill:transparent;stroke:black" /><text x="690" y="490" font-size="8" style="fill:black">longitud: 1</text><text x="690" y="500" font-size="8" style="fill:black">latitud: 2</text><text x="690" y="510" font-size="8" style="fill:black">altitud: 3</text><text x="690" y="520" font-size="8" style="fill:black">distanciahito: 100 km</text><rect x="900" y="470" width="200" height="40" style="fill:white;stroke:black;stroke-width:1" /><text x="910" y="480" font-size="10" style="fill:blue">nombrehito</text><path d="M880 490 C900 490 880 490 900 490" style="fill:transparent;stroke:black" /><rect x="966" y="470" width="137" height="40" style="fill:green;stroke:black;stroke-width:1" /><text x="976" y="480" font-size="8" style="fill:white"> Hito 1</text><rect x="900" y="520" width="200" height="40" style="fill:white;stroke:black;stroke-width:1" /><text x="910" y="530" font-size="10" style="fill:blue">descripcionhito</text><path d="M880 490 C900 490 880 540 900 540" style="fill:transparent;stroke:black" /><rect x="966" y="520" width="137" height="40" style="fill:green;stroke:black;stroke-width:1" /><text x="976" y="530" font-size="8" style="fill:white"> Descripcion por defecto del hito</text><rect x="900" y="570" width="200" height="40" style="fill:white;stroke:black;stroke-width:1" /><text x="910" y="580" font-size="10" style="fill:blue">fotografias</text><path d="M880 490 C900 490 880 590 900 590" style="fill:transparent;stroke:black" /><rect x="1120" y="570" width="200" height="40" style="fill:white;stroke:black;stroke-width:1" /><text x="1130" y="580" font-size="10" style="fill:blue">fotografia</text><path d="M1100 590 C1120 590 1100 590 1120 590" style="fill:transparent;stroke:black" /><rect x="1186" y="570" width="137" height="40" style="fill:green;stroke:black;stroke-width:1" /><text x="1196" y="580" font-size="8" style="fill:white">fotografia1.jpg</text><rect x="1120" y="620" width="200" height="40" style="fill:white;stroke:black;stroke-width:1" /><text x="1130" y="630" font-size="10" style="fill:blue">fotografia</text><path d="M1100 590 C1120 590 1100 640 1120 640" style="fill:transparent;stroke:black" /><rect x="1186" y="620" width="137" height="40" style="fill:green;stroke:black;stroke-width:1" /><text x="1196" y="630" font-size="8" style="fill:white">fotografia2.jpg</text><rect x="1120" y="670" width="200" height="40" style="fill:white;stroke:black;stroke-width:1" /><text x="1130" y="680" font-size="10" style="fill:blue">fotografia</text><path d="M1100 590 C1120 590 1100 690 1120 690" style="fill:transparent;stroke:black" /><rect x="1186" y="670" width="137" height="40" style="fill:green;stroke:black;stroke-width:1" /><text x="1196" y="680" font-size="8" style="fill:white">fotografia3.jpg</text><rect x="900" y="770" width="200" height="40" style="fill:white;stroke:black;stroke-width:1" /><text x="910" y="780" font-size="10" style="fill:blue">videos</text><path d="M880 490 C900 490 880 790 900 790" style="fill:transparent;stroke:black" /><rect x="680" y="870" width="200" height="40" style="fill:white;stroke:black;stroke-width:1" /><text x="690" y="880" font-size="10" style="fill:blue">hito</text><path d="M660 490 C680 490 660 890 680 890" style="fill:transparent;stroke:black" /><text x="690" y="890" font-size="8" style="fill:black">longitud: 1</text><text x="690" y="900" font-size="8" style="fill:black">latitud: 2</text><text x="690" y="910" font-size="8" style="fill:black">altitud: 3</text><text x="690" y="920" font-size="8" style="fill:black">distanciahito: 100 km</text><rect x="900" y="870" width="200" height="40" style="fill:white;stroke:black;stroke-width:1" /><text x="910" y="880" font-size="10" style="fill:blue">nombrehito</text><path d="M880 890 C900 890 880 890 900 890" style="fill:transparent;stroke:black" /><rect x="966" y="870" width="137" height="40" style="fill:green;stroke:black;stroke-width:1" /><text x="976" y="880" font-size="8" style="fill:white"> Hito 2</text><rect x="900" y="920" width="200" height="40" style="fill:white;stroke:black;stroke-width:1" /><text x="910" y="930" font-size="10" style="fill:blue">descripcionhito</text><path d="M880 890 C900 890 880 940 900 940" style="fill:transparent;stroke:black" /><rect x="966" y="920" width="137" height="40" style="fill:green;stroke:black;stroke-width:1" /><text x="976" y="930" font-size="8" style="fill:white"> Descripcion por defecto del hito</text><rect x="900" y="970" width="200" height="40" style="fill:white;stroke:black;stroke-width:1" /><text x="910" y="980" font-size="10" style="fill:blue">fotografias</text><path d="M880 890 C900 890 880 990 900 990" style="fill:transparent;stroke:black" /><rect x="1120" y="970" width="200" height="40" style="fill:white;stroke:black;stroke-width:1" /><text x="1130" y="980" font-size="10" style="fill:blue">fotografia</text><path d="M1100 990 C1120 990 1100 990 1120 990" style="fill:transparent;stroke:black" /><rect x="1186" y="970" width="137" height="40" style="fill:green;stroke:black;stroke-width:1" /><text x="1196" y="980" font-size="8" style="fill:white">fotografia1.jpg</text><rect x="1120" y="1020" width="200" height="40" style="fill:white;stroke:black;stroke-width:1" /><text x="1130" y="1030" font-size="10" style="fill:blue">fotografia</text><path d="M1100 990 C1120 990 1100 1040 1120 1040" style="fill:transparent;stroke:black" /><rect x="1186" y="1020" width="137" height="40" style="fill:green;stroke:black;stroke-width:1" /><text x="1196" y="1030" font-size="8" style="fill:white">fotografia2.jpg</text><rect x="1120" y="1070" width="200" height="40" style="fill:white;stroke:black;stroke-width:1" /><text x="1130" y="1080" font-size="10" style="fill:blue">fotografia</text><path d="M1100 990 C1120 990 1100 1090 1120 1090" style="fill:transparent;stroke:black" /><rect x="1186" y="1070" width="137" height="40" style="fill:green;stroke:black;stroke-width:1" /><text x="1196" y="1080" font-size="8" style="fill:white">fotografia3.jpg</text><rect x="900" y="1170" width="200" height="40" style="fill:white;stroke:black;stroke-width:1" /><text x="910" y="1180" font-size="10" style="fill:blue">videos</text><path d="M880 890 C900 890 880 1190 900 1190" style="fill:transparent;stroke:black" /><rect x="680" y="1270" width="200" height="40" style="fill:white;stroke:black;stroke-width:1" /><text x="690" y="1280" font-size="10" style="fill:blue">hito</text><path d="M660 490 C680 490 660 1290 680 1290" style="fill:transparent;stroke:black" /><text x="690" y="1290" font-size="8" style="fill:black">longitud: 1</text><text x="690" y="1300" font-size="8" style="fill:black">latitud: 2</text><text x="690" y="1310" font-size="8" style="fill:black">altitud: 3</text><text x="690" y="1320" font-size="8" style="fill:black">distanciahito: 100 km</text><rect x="900" y="1270" width="200" height="40" style="fill:white;stroke:black;stroke-width:1" /><text x="910" y="1280" font-size="10" style="fill:blue">nombrehito</text><path d="M880 1290 C900 1290 880 1290 900 1290" style="fill:transparent;stroke:black" /><rect x="966" y="1270" width="137" height="40" style="fill:green;stroke:black;stroke-width:1" /><text x="976" y="1280" font-size="8" style="fill:white"> Hito 3</text><rect x="900" y="1320" width="200" height="40" style="fill:white;stroke:black;stroke-width:1" /><text x="910" y="1330" font-size="10" style="fill:blue">descripcionhito</text><path d="M880 1290 C900 1290 880 1340 900 1340" style="fill:transparent;stroke:black" /><rect x="966" y="1320" width="137" height="40" style="fill:green;stroke:black;stroke-width:1" /><text x="976" y="1330" font-size="8" style="fill:white"> Descripcion por defecto del hito</text><rect x="900" y="1370" width="200" height="40" style="fill:white;stroke:black;stroke-width:1" /><text x="910" y="1380" font-size="10" style="fill:blue">fotografias</text><path d="M880 1290 C900 1290 880 1390 900 1390" style="fill:transparent;stroke:black" /><rect x="1120" y="1370" width="200" height="40" style="fill:white;stroke:black;stroke-width:1" /><text x="1130" y="1380" font-size="10" style="fill:blue">fotografia</text><path d="M1100 1390 C1120 1390 1100 1390 1120 1390" style="fill:transparent;stroke:black" /><rect x="1186" y="1370" width="137" height="40" style="fill:green;stroke:black;stroke-width:1" /><text x="1196" y="1380" font-size="8" style="fill:white">fotografia1.jpg</text><rect x="1120" y="1420" width="200" height="40" style="fill:white;stroke:black;stroke-width:1" /><text x="1130" y="1430" font-size="10" style="fill:blue">fotografia</text><path d="M1100 1390 C1120 1390 1100 1440 1120 1440" style="fill:transparent;stroke:black" /><rect x="1186" y="1420" width="137" height="40" style="fill:green;stroke:black;stroke-width:1" /><text x="1196" y="1430" font-size="8" style="fill:white">fotografia2.jpg</text><rect x="1120" y="1470" width="200" height="40" style="fill:white;stroke:black;stroke-width:1" /><text x="1130" y="1480" font-size="10" style="fill:blue">fotografia</text><path d="M1100 1390 C1120 1390 1100 1490 1120 1490" style="fill:transparent;stroke:black" /><rect x="1186" y="1470" width="137" height="40" style="fill:green;stroke:black;stroke-width:1" /><text x="1196" y="1480" font-size="8" style="fill:white">fotografia3.jpg</text><rect x="900" y="1570" width="200" height="40" style="fill:white;stroke:black;stroke-width:1" /><text x="910" y="1580" font-size="10" style="fill:blue">videos</text><path d="M880 1290 C900 1290 880 1590 900 1590" style="fill:transparent;stroke:black" /><rect x="240" y="1770" width="200" height="40" style="fill:white;stroke:black;stroke-width:1" /><text x="250" y="1780" font-size="10" style="fill:blue">ruta</text><path d="M220 40 C240 40 220 1790 240 1790" style="fill:transparent;stroke:black" /><text x="250" y="1790" font-size="8" style="fill:black">fechainicio: 1-1-2023</text><text x="250" y="1800" font-size="8" style="fill:black">horainicio: 18:00</text><text x="250" y="1810" font-size="8" style="fill:black">tiemporuta: 2 horas</text><rect x="460" y="1770" width="200" height="40" style="fill:white;stroke:black;stroke-width:1" /><text x="470" y="1780" font-size="10" style="fill:blue">nombreruta</text><path d="M440 1790 C460 1790 440 1790 460 1790" style="fill:transparent;stroke:black" /><rect x="526" y="1770" width="137" height="40" style="fill:green;stroke:black;stroke-width:1" /><text x="536" y="1780" font-size="8" style="fill:white"> Ruta 1</text><rect x="460" y="1820" width="200" height="40" style="fill:white;stroke:black;stroke-width:1" /><text x="470" y="1830" font-size="10" style="fill:blue">tiporuta</text><path d="M440 1790 C460 1790 440 1840 460 1840" style="fill:transparent;stroke:black" /><text x="470" y="1840" font-size="8" style="fill:black">transporte: a pie</text><rect x="460" y="1870" width="200" height="40" style="fill:white;stroke:black;stroke-width:1" /><text x="470" y="1880" font-size="10" style="fill:blue">agencia</text><path d="M440 1790 C460 1790 440 1890 460 1890" style="fill:transparent;stroke:black" /><rect x="526" y="1870" width="137" height="40" style="fill:green;stroke:black;stroke-width:1" /><text x="536" y="1880" font-size="8" style="fill:white">sin agencia</text><rect x="460" y="1920" width="200" height="40" style="fill:white;stroke:black;stroke-width:1" /><text x="470" y="1930" font-size="10" style="fill:blue">descripcion</text><path d="M440 1790 C460 1790 440 1940 460 1940" style="fill:transparent;stroke:black" /><rect x="526" y="1920" width="137" height="40" style="fill:green;stroke:black;stroke-width:1" /><text x="536" y="1930" font-size="8" style="fill:white">Ruta de prueba que más adelante 
            será completada con una ruta realista</text><rect x="460" y="1970" width="200" height="40" style="fill:white;stroke:black;stroke-width:1" /><text x="470" y="1980" font-size="10" style="fill:blue">recomendacionpersonas</text><path d="M440 1790 C460 1790 440 1990 460 1990" style="fill:transparent;stroke:black" /><rect x="526" y="1970" width="137" height="40" style="fill:green;stroke:black;stroke-width:1" /><text x="536" y="1980" font-size="8" style="fill:white"> Perfecta para todas las edades</text><rect x="460" y="2020" width="200" height="40" style="fill:white;stroke:black;stroke-width:1" /><text x="470" y="2030" font-size="10" style="fill:blue">lugarinicio</text><path d="M440 1790 C460 1790 440 2040 460 2040" style="fill:transparent;stroke:black" /><text x="470" y="2040" font-size="8" style="fill:black">direccion: calle Por Defecto 3</text><text x="470" y="2050" font-size="8" style="fill:black">longitud: 1</text><text x="470" y="2060" font-size="8" style="fill:black">latitud: 2</text><text x="470" y="2070" font-size="8" style="fill:black">altitud: 2</text><rect x="526" y="2020" width="137" height="40" style="fill:green;stroke:black;stroke-width:1" /><text x="536" y="2030" font-size="8" style="fill:white">sitio Por Defecto</text><rect x="460" y="2070" width="200" height="40" style="fill:white;stroke:black;stroke-width:1" /><text x="470" y="2080" font-size="10" style="fill:blue">referencias</text><path d="M440 1790 C460 1790 440 2090 460 2090" style="fill:transparent;stroke:black" /><rect x="680" y="2070" width="200" height="40" style="fill:white;stroke:black;stroke-width:1" /><text x="690" y="2080" font-size="10" style="fill:blue">referencia</text><path d="M660 2090 C680 2090 660 2090 680 2090" style="fill:transparent;stroke:black" /><rect x="460" y="2170" width="200" height="40" style="fill:white;stroke:black;stroke-width:1" /><text x="470" y="2180" font-size="10" style="fill:blue">recomendacion</text><path d="M440 1790 C460 1790 440 2190 460 2190" style="fill:transparent;stroke:black" /><rect x="526" y="2170" width="137" height="40" style="fill:green;stroke:black;stroke-width:1" /><text x="536" y="2180" font-size="8" style="fill:white">8</text><rect x="460" y="2220" width="200" height="40" style="fill:white;stroke:black;stroke-width:1" /><text x="470" y="2230" font-size="10" style="fill:blue">hitos</text><path d="M440 1790 C460 1790 440 2240 460 2240" style="fill:transparent;stroke:black" /><rect x="680" y="2220" width="200" height="40" style="fill:white;stroke:black;stroke-width:1" /><text x="690" y="2230" font-size="10" style="fill:blue">hito</text><path d="M660 2240 C680 2240 660 2240 680 2240" style="fill:transparent;stroke:black" /><text x="690" y="2240" font-size="8" style="fill:black">longitud: 1</text><text x="690" y="2250" font-size="8" style="fill:black">latitud: 2</text><text x="690" y="2260" font-size="8" style="fill:black">altitud: 3</text><text x="690" y="2270" font-size="8" style="fill:black">distanciahito: 100 km</text><rect x="900" y="2220" width="200" height="40" style="fill:white;stroke:black;stroke-width:1" /><text x="910" y="2230" font-size="10" style="fill:blue">nombrehito</text><path d="M880 2240 C900 2240 880 2240 900 2240" style="fill:transparent;stroke:black" /><rect x="966" y="2220" width="137" height="40" style="fill:green;stroke:black;stroke-width:1" /><text x="976" y="2230" font-size="8" style="fill:white"> Hito 1</text><rect x="900" y="2270" width="200" height="40" style="fill:white;stroke:black;stroke-width:1" /><text x="910" y="2280" font-size="10" style="fill:blue">descripcionhito</text><path d="M880 2240 C900 2240 880 2290 900 2290" style="fill:transparent;stroke:black" /><rect x="966" y="2270" width="137" height="40" style="fill:green;stroke:black;stroke-width:1" /><text x="976" y="2280" font-size="8" style="fill:white"> Descripcion por defecto del hito</text><rect x="900" y="2320" width="200" height="40" style="fill:white;stroke:black;stroke-width:1" /><text x="910" y="2330" font-size="10" style="fill:blue">fotografias</text><path d="M880 2240 C900 2240 880 2340 900 2340" style="fill:transparent;stroke:black" /><rect x="1120" y="2320" width="200" height="40" style="fill:white;stroke:black;stroke-width:1" /><text x="1130" y="2330" font-size="10" style="fill:blue">fotografia</text><path d="M1100 2340 C1120 2340 1100 2340 1120 2340" style="fill:transparent;stroke:black" /><rect x="1186" y="2320" width="137" height="40" style="fill:green;stroke:black;stroke-width:1" /><text x="1196" y="2330" font-size="8" style="fill:white">fotografia1.jpg</text><rect x="1120" y="2370" width="200" height="40" style="fill:white;stroke:black;stroke-width:1" /><text x="1130" y="2380" font-size="10" style="fill:blue">fotografia</text><path d="M1100 2340 C1120 2340 1100 2390 1120 2390" style="fill:transparent;stroke:black" /><rect x="1186" y="2370" width="137" height="40" style="fill:green;stroke:black;stroke-width:1" /><text x="1196" y="2380" font-size="8" style="fill:white">fotografia2.jpg</text><rect x="1120" y="2420" width="200" height="40" style="fill:white;stroke:black;stroke-width:1" /><text x="1130" y="2430" font-size="10" style="fill:blue">fotografia</text><path d="M1100 2340 C1120 2340 1100 2440 1120 2440" style="fill:transparent;stroke:black" /><rect x="1186" y="2420" width="137" height="40" style="fill:green;stroke:black;stroke-width:1" /><text x="1196" y="2430" font-size="8" style="fill:white">fotografia3.jpg</text><rect x="900" y="2520" width="200" height="40" style="fill:white;stroke:black;stroke-width:1" /><text x="910" y="2530" font-size="10" style="fill:blue">videos</text><path d="M880 2240 C900 2240 880 2540 900 2540" style="fill:transparent;stroke:black" /><rect x="680" y="2620" width="200" height="40" style="fill:white;stroke:black;stroke-width:1" /><text x="690" y="2630" font-size="10" style="fill:blue">hito</text><path d="M660 2240 C680 2240 660 2640 680 2640" style="fill:transparent;stroke:black" /><text x="690" y="2640" font-size="8" style="fill:black">longitud: 1</text><text x="690" y="2650" font-size="8" style="fill:black">latitud: 2</text><text x="690" y="2660" font-size="8" style="fill:black">altitud: 3</text><text x="690" y="2670" font-size="8" style="fill:black">distanciahito: 100 km</text><rect x="900" y="2620" width="200" height="40" style="fill:white;stroke:black;stroke-width:1" /><text x="910" y="2630" font-size="10" style="fill:blue">nombrehito</text><path d="M880 2640 C900 2640 880 2640 900 2640" style="fill:transparent;stroke:black" /><rect x="966" y="2620" width="137" height="40" style="fill:green;stroke:black;stroke-width:1" /><text x="976" y="2630" font-size="8" style="fill:white"> Hito 2</text><rect x="900" y="2670" width="200" height="40" style="fill:white;stroke:black;stroke-width:1" /><text x="910" y="2680" font-size="10" style="fill:blue">descripcionhito</text><path d="M880 2640 C900 2640 880 2690 900 2690" style="fill:transparent;stroke:black" /><rect x="966" y="2670" width="137" height="40" style="fill:green;stroke:black;stroke-width:1" /><text x="976" y="2680" font-size="8" style="fill:white"> Descripcion por defecto del hito</text><rect x="900" y="2720" width="200" height="40" style="fill:white;stroke:black;stroke-width:1" /><text x="910" y="2730" font-size="10" style="fill:blue">fotografias</text><path d="M880 2640 C900 2640 880 2740 900 2740" style="fill:transparent;stroke:black" /><rect x="1120" y="2720" width="200" height="40" style="fill:white;stroke:black;stroke-width:1" /><text x="1130" y="2730" font-size="10" style="fill:blue">fotografia</text><path d="M1100 2740 C1120 2740 1100 2740 1120 2740" style="fill:transparent;stroke:black" /><rect x="1186" y="2720" width="137" height="40" style="fill:green;stroke:black;stroke-width:1" /><text x="1196" y="2730" font-size="8" style="fill:white">fotografia1.jpg</text><rect x="1120" y="2770" width="200" height="40" style="fill:white;stroke:black;stroke-width:1" /><text x="1130" y="2780" font-size="10" style="fill:blue">fotografia</text><path d="M1100 2740 C1120 2740 1100 2790 1120 2790" style="fill:transparent;stroke:black" /><rect x="1186" y="2770" width="137" height="40" style="fill:green;stroke:black;stroke-width:1" /><text x="1196" y="2780" font-size="8" style="fill:white">fotografia2.jpg</text><rect x="1120" y="2820" width="200" height="40" style="fill:white;stroke:black;stroke-width:1" /><text x="1130" y="2830" font-size="10" style="fill:blue">fotografia</text><path d="M1100 2740 C1120 2740 1100 2840 1120 2840" style="fill:transparent;stroke:black" /><rect x="1186" y="2820" width="137" height="40" style="fill:green;stroke:black;stroke-width:1" /><text x="1196" y="2830" font-size="8" style="fill:white">fotografia3.jpg</text><rect x="900" y="2920" width="200" height="40" style="fill:white;stroke:black;stroke-width:1" /><text x="910" y="2930" font-size="10" style="fill:blue">videos</text><path d="M880 2640 C900 2640 880 2940 900 2940" style="fill:transparent;stroke:black" /><rect x="680" y="3020" width="200" height="40" style="fill:white;stroke:black;stroke-width:1" /><text x="690" y="3030" font-size="10" style="fill:blue">hito</text><path d="M660 2240 C680 2240 660 3040 680 3040" style="fill:transparent;stroke:black" /><text x="690" y="3040" font-size="8" style="fill:black">longitud: 1</text><text x="690" y="3050" font-size="8" style="fill:black">latitud: 2</text><text x="690" y="3060" font-size="8" style="fill:black">altitud: 3</text><text x="690" y="3070" font-size="8" style="fill:black">distanciahito: 100 km</text><rect x="900" y="3020" width="200" height="40" style="fill:white;stroke:black;stroke-width:1" /><text x="910" y="3030" font-size="10" style="fill:blue">nombrehito</text><path d="M880 3040 C900 3040 880 3040 900 3040" style="fill:transparent;stroke:black" /><rect x="966" y="3020" width="137" height="40" style="fill:green;stroke:black;stroke-width:1" /><text x="976" y="3030" font-size="8" style="fill:white"> Hito 3</text><rect x="900" y="3070" width="200" height="40" style="fill:white;stroke:black;stroke-width:1" /><text x="910" y="3080" font-size="10" style="fill:blue">descripcionhito</text><path d="M880 3040 C900 3040 880 3090 900 3090" style="fill:transparent;stroke:black" /><rect x="966" y="3070" width="137" height="40" style="fill:green;stroke:black;stroke-width:1" /><text x="976" y="3080" font-size="8" style="fill:white"> Descripcion por defecto del hito</text><rect x="900" y="3120" width="200" height="40" style="fill:white;stroke:black;stroke-width:1" /><text x="910" y="3130" font-size="10" style="fill:blue">fotografias</text><path d="M880 3040 C900 3040 880 3140 900 3140" style="fill:transparent;stroke:black" /><rect x="1120" y="3120" width="200" height="40" style="fill:white;stroke:black;stroke-width:1" /><text x="1130" y="3130" font-size="10" style="fill:blue">fotografia</text><path d="M1100 3140 C1120 3140 1100 3140 1120 3140" style="fill:transparent;stroke:black" /><rect x="1186" y="3120" width="137" height="40" style="fill:green;stroke:black;stroke-width:1" /><text x="1196" y="3130" font-size="8" style="fill:white">fotografia1.jpg</text><rect x="1120" y="3170" width="200" height="40" style="fill:white;stroke:black;stroke-width:1" /><text x="1130" y="3180" font-size="10" style="fill:blue">fotografia</text><path d="M1100 3140 C1120 3140 1100 3190 1120 3190" style="fill:transparent;stroke:black" /><rect x="1186" y="3170" width="137" height="40" style="fill:green;stroke:black;stroke-width:1" /><text x="1196" y="3180" font-size="8" style="fill:white">fotografia2.jpg</text><rect x="1120" y="3220" width="200" height="40" style="fill:white;stroke:black;stroke-width:1" /><text x="1130" y="3230" font-size="10" style="fill:blue">fotografia</text><path d="M1100 3140 C1120 3140 1100 3240 1120 3240" style="fill:transparent;stroke:black" /><rect x="1186" y="3220" width="137" height="40" style="fill:green;stroke:black;stroke-width:1" /><text x="1196" y="3230" font-size="8" style="fill:white">fotografia3.jpg</text><rect x="900" y="3320" width="200" height="40" style="fill:white;stroke:black;stroke-width:1" /><text x="910" y="3330" font-size="10" style="fill:blue">videos</text><path d="M880 3040 C900 3040 880 3340 900 3340" style="fill:transparent;stroke:black" /><rect x="240" y="3520" width="200" height="40" style="fill:white;stroke:black;stroke-width:1" /><text x="250" y="3530" font-size="10" style="fill:blue">ruta</text><path d="M220 40 C240 40 220 3540 240 3540" style="fill:transparent;stroke:black" /><text x="250" y="3540" font-size="8" style="fill:black">fechainicio: 1-1-2023</text><text x="250" y="3550" font-size="8" style="fill:black">horainicio: 18:00</text><text x="250" y="3560" font-size="8" style="fill:black">tiemporuta: 2 horas</text><rect x="460" y="3520" width="200" height="40" style="fill:white;stroke:black;stroke-width:1" /><text x="470" y="3530" font-size="10" style="fill:blue">nombreruta</text><path d="M440 3540 C460 3540 440 3540 460 3540" style="fill:transparent;stroke:black" /><rect x="526" y="3520" width="137" height="40" style="fill:green;stroke:black;stroke-width:1" /><text x="536" y="3530" font-size="8" style="fill:white"> Ruta 1</text><rect x="460" y="3570" width="200" height="40" style="fill:white;stroke:black;stroke-width:1" /><text x="470" y="3580" font-size="10" style="fill:blue">tiporuta</text><path d="M440 3540 C460 3540 440 3590 460 3590" style="fill:transparent;stroke:black" /><text x="470" y="3590" font-size="8" style="fill:black">transporte: a pie</text><rect x="460" y="3620" width="200" height="40" style="fill:white;stroke:black;stroke-width:1" /><text x="470" y="3630" font-size="10" style="fill:blue">agencia</text><path d="M440 3540 C460 3540 440 3640 460 3640" style="fill:transparent;stroke:black" /><rect x="526" y="3620" width="137" height="40" style="fill:green;stroke:black;stroke-width:1" /><text x="536" y="3630" font-size="8" style="fill:white">sin agencia</text><rect x="460" y="3670" width="200" height="40" style="fill:white;stroke:black;stroke-width:1" /><text x="470" y="3680" font-size="10" style="fill:blue">descripcion</text><path d="M440 3540 C460 3540 440 3690 460 3690" style="fill:transparent;stroke:black" /><rect x="526" y="3670" width="137" height="40" style="fill:green;stroke:black;stroke-width:1" /><text x="536" y="3680" font-size="8" style="fill:white">Ruta de prueba que más adelante 
            será completada con una ruta realista</text><rect x="460" y="3720" width="200" height="40" style="fill:white;stroke:black;stroke-width:1" /><text x="470" y="3730" font-size="10" style="fill:blue">recomendacionpersonas</text><path d="M440 3540 C460 3540 440 3740 460 3740" style="fill:transparent;stroke:black" /><rect x="526" y="3720" width="137" height="40" style="fill:green;stroke:black;stroke-width:1" /><text x="536" y="3730" font-size="8" style="fill:white"> Perfecta para todas las edades</text><rect x="460" y="3770" width="200" height="40" style="fill:white;stroke:black;stroke-width:1" /><text x="470" y="3780" font-size="10" style="fill:blue">lugarinicio</text><path d="M440 3540 C460 3540 440 3790 460 3790" style="fill:transparent;stroke:black" /><text x="470" y="3790" font-size="8" style="fill:black">direccion: calle Por Defecto 3</text><text x="470" y="3800" font-size="8" style="fill:black">longitud: 1</text><text x="470" y="3810" font-size="8" style="fill:black">latitud: 2</text><text x="470" y="3820" font-size="8" style="fill:black">altitud: 2</text><rect x="526" y="3770" width="137" height="40" style="fill:green;stroke:black;stroke-width:1" /><text x="536" y="3780" font-size="8" style="fill:white">sitio Por Defecto</text><rect x="460" y="3820" width="200" height="40" style="fill:white;stroke:black;stroke-width:1" /><text x="470" y="3830" font-size="10" style="fill:blue">referencias</text><path d="M440 3540 C460 3540 440 3840 460 3840" style="fill:transparent;stroke:black" /><rect x="680" y="3820" width="200" height="40" style="fill:white;stroke:black;stroke-width:1" /><text x="690" y="3830" font-size="10" style="fill:blue">referencia</text><path d="M660 3840 C680 3840 660 3840 680 3840" style="fill:transparent;stroke:black" /><rect x="460" y="3920" width="200" height="40" style="fill:white;stroke:black;stroke-width:1" /><text x="470" y="3930" font-size="10" style="fill:blue">recomendacion</text><path d="M440 3540 C460 3540 440 3940 460 3940" style="fill:transparent;stroke:black" /><rect x="526" y="3920" width="137" height="40" style="fill:green;stroke:black;stroke-width:1" /><text x="536" y="3930" font-size="8" style="fill:white">8</text><rect x="460" y="3970" width="200" height="40" style="fill:white;stroke:black;stroke-width:1" /><text x="470" y="3980" font-size="10" style="fill:blue">hitos</text><path d="M440 3540 C460 3540 440 3990 460 3990" style="fill:transparent;stroke:black" /><rect x="680" y="3970" width="200" height="40" style="fill:white;stroke:black;stroke-width:1" /><text x="690" y="3980" font-size="10" style="fill:blue">hito</text><path d="M660 3990 C680 3990 660 3990 680 3990" style="fill:transparent;stroke:black" /><text x="690" y="3990" font-size="8" style="fill:black">longitud: 1</text><text x="690" y="4000" font-size="8" style="fill:black">latitud: 2</text><text x="690" y="4010" font-size="8" style="fill:black">altitud: 3</text><text x="690" y="4020" font-size="8" style="fill:black">distanciahito: 100 km</text><rect x="900" y="3970" width="200" height="40" style="fill:white;stroke:black;stroke-width:1" /><text x="910" y="3980" font-size="10" style="fill:blue">nombrehito</text><path d="M880 3990 C900 3990 880 3990 900 3990" style="fill:transparent;stroke:black" /><rect x="966" y="3970" width="137" height="40" style="fill:green;stroke:black;stroke-width:1" /><text x="976" y="3980" font-size="8" style="fill:white"> Hito 1</text><rect x="900" y="4020" width="200" height="40" style="fill:white;stroke:black;stroke-width:1" /><text x="910" y="4030" font-size="10" style="fill:blue">descripcionhito</text><path d="M880 3990 C900 3990 880 4040 900 4040" style="fill:transparent;stroke:black" /><rect x="966" y="4020" width="137" height="40" style="fill:green;stroke:black;stroke-width:1" /><text x="976" y="4030" font-size="8" style="fill:white"> Descripcion por defecto del hito</text><rect x="900" y="4070" width="200" height="40" style="fill:white;stroke:black;stroke-width:1" /><text x="910" y="4080" font-size="10" style="fill:blue">fotografias</text><path d="M880 3990 C900 3990 880 4090 900 4090" style="fill:transparent;stroke:black" /><rect x="1120" y="4070" width="200" height="40" style="fill:white;stroke:black;stroke-width:1" /><text x="1130" y="4080" font-size="10" style="fill:blue">fotografia</text><path d="M1100 4090 C1120 4090 1100 4090 1120 4090" style="fill:transparent;stroke:black" /><rect x="1186" y="4070" width="137" height="40" style="fill:green;stroke:black;stroke-width:1" /><text x="1196" y="4080" font-size="8" style="fill:white">fotografia1.jpg</text><rect x="1120" y="4120" width="200" height="40" style="fill:white;stroke:black;stroke-width:1" /><text x="1130" y="4130" font-size="10" style="fill:blue">fotografia</text><path d="M1100 4090 C1120 4090 1100 4140 1120 4140" style="fill:transparent;stroke:black" /><rect x="1186" y="4120" width="137" height="40" style="fill:green;stroke:black;stroke-width:1" /><text x="1196" y="4130" font-size="8" style="fill:white">fotografia2.jpg</text><rect x="1120" y="4170" width="200" height="40" style="fill:white;stroke:black;stroke-width:1" /><text x="1130" y="4180" font-size="10" style="fill:blue">fotografia</text><path d="M1100 4090 C1120 4090 1100 4190 1120 4190" style="fill:transparent;stroke:black" /><rect x="1186" y="4170" width="137" height="40" style="fill:green;stroke:black;stroke-width:1" /><text x="1196" y="4180" font-size="8" style="fill:white">fotografia3.jpg</text><rect x="900" y="4270" width="200" height="40" style="fill:white;stroke:black;stroke-width:1" /><text x="910" y="4280" font-size="10" style="fill:blue">videos</text><path d="M880 3990 C900 3990 880 4290 900 4290" style="fill:transparent;stroke:black" /><rect x="680" y="4370" width="200" height="40" style="fill:white;stroke:black;stroke-width:1" /><text x="690" y="4380" font-size="10" style="fill:blue">hito</text><path d="M660 3990 C680 3990 660 4390 680 4390" style="fill:transparent;stroke:black" /><text x="690" y="4390" font-size="8" style="fill:black">longitud: 1</text><text x="690" y="4400" font-size="8" style="fill:black">latitud: 2</text><text x="690" y="4410" font-size="8" style="fill:black">altitud: 3</text><text x="690" y="4420" font-size="8" style="fill:black">distanciahito: 100 km</text><rect x="900" y="4370" width="200" height="40" style="fill:white;stroke:black;stroke-width:1" /><text x="910" y="4380" font-size="10" style="fill:blue">nombrehito</text><path d="M880 4390 C900 4390 880 4390 900 4390" style="fill:transparent;stroke:black" /><rect x="966" y="4370" width="137" height="40" style="fill:green;stroke:black;stroke-width:1" /><text x="976" y="4380" font-size="8" style="fill:white"> Hito 2</text><rect x="900" y="4420" width="200" height="40" style="fill:white;stroke:black;stroke-width:1" /><text x="910" y="4430" font-size="10" style="fill:blue">descripcionhito</text><path d="M880 4390 C900 4390 880 4440 900 4440" style="fill:transparent;stroke:black" /><rect x="966" y="4420" width="137" height="40" style="fill:green;stroke:black;stroke-width:1" /><text x="976" y="4430" font-size="8" style="fill:white"> Descripcion por defecto del hito</text><rect x="900" y="4470" width="200" height="40" style="fill:white;stroke:black;stroke-width:1" /><text x="910" y="4480" font-size="10" style="fill:blue">fotografias</text><path d="M880 4390 C900 4390 880 4490 900 4490" style="fill:transparent;stroke:black" /><rect x="1120" y="4470" width="200" height="40" style="fill:white;stroke:black;stroke-width:1" /><text x="1130" y="4480" font-size="10" style="fill:blue">fotografia</text><path d="M1100 4490 C1120 4490 1100 4490 1120 4490" style="fill:transparent;stroke:black" /><rect x="1186" y="4470" width="137" height="40" style="fill:green;stroke:black;stroke-width:1" /><text x="1196" y="4480" font-size="8" style="fill:white">fotografia1.jpg</text><rect x="1120" y="4520" width="200" height="40" style="fill:white;stroke:black;stroke-width:1" /><text x="1130" y="4530" font-size="10" style="fill:blue">fotografia</text><path d="M1100 4490 C1120 4490 1100 4540 1120 4540" style="fill:transparent;stroke:black" /><rect x="1186" y="4520" width="137" height="40" style="fill:green;stroke:black;stroke-width:1" /><text x="1196" y="4530" font-size="8" style="fill:white">fotografia2.jpg</text><rect x="1120" y="4570" width="200" height="40" style="fill:white;stroke:black;stroke-width:1" /><text x="1130" y="4580" font-size="10" style="fill:blue">fotografia</text><path d="M1100 4490 C1120 4490 1100 4590 1120 4590" style="fill:transparent;stroke:black" /><rect x="1186" y="4570" width="137" height="40" style="fill:green;stroke:black;stroke-width:1" /><text x="1196" y="4580" font-size="8" style="fill:white">fotografia3.jpg</text><rect x="900" y="4670" width="200" height="40" style="fill:white;stroke:black;stroke-width:1" /><text x="910" y="4680" font-size="10" style="fill:blue">videos</text><path d="M880 4390 C900 4390 880 4690 900 4690" style="fill:transparent;stroke:black" /><rect x="680" y="4770" width="200" height="40" style="fill:white;stroke:black;stroke-width:1" /><text x="690" y="4780" font-size="10" style="fill:blue">hito</text><path d="M660 3990 C680 3990 660 4790 680 4790" style="fill:transparent;stroke:black" /><text x="690" y="4790" font-size="8" style="fill:black">longitud: 1</text><text x="690" y="4800" font-size="8" style="fill:black">latitud: 2</text><text x="690" y="4810" font-size="8" style="fill:black">altitud: 3</text><text x="690" y="4820" font-size="8" style="fill:black">distanciahito: 100 km</text><rect x="900" y="4770" width="200" height="40" style="fill:white;stroke:black;stroke-width:1" /><text x="910" y="4780" font-size="10" style="fill:blue">nombrehito</text><path d="M880 4790 C900 4790 880 4790 900 4790" style="fill:transparent;stroke:black" /><rect x="966" y="4770" width="137" height="40" style="fill:green;stroke:black;stroke-width:1" /><text x="976" y="4780" font-size="8" style="fill:white"> Hito 3</text><rect x="900" y="4820" width="200" height="40" style="fill:white;stroke:black;stroke-width:1" /><text x="910" y="4830" font-size="10" style="fill:blue">descripcionhito</text><path d="M880 4790 C900 4790 880 4840 900 4840" style="fill:transparent;stroke:black" /><rect x="966" y="4820" width="137" height="40" style="fill:green;stroke:black;stroke-width:1" /><text x="976" y="4830" font-size="8" style="fill:white"> Descripcion por defecto del hito</text><rect x="900" y="4870" width="200" height="40" style="fill:white;stroke:black;stroke-width:1" /><text x="910" y="4880" font-size="10" style="fill:blue">fotografias</text><path d="M880 4790 C900 4790 880 4890 900 4890" style="fill:transparent;stroke:black" /><rect x="1120" y="4870" width="200" height="40" style="fill:white;stroke:black;stroke-width:1" /><text x="1130" y="4880" font-size="10" style="fill:blue">fotografia</text><path d="M1100 4890 C1120 4890 1100 4890 1120 4890" style="fill:transparent;stroke:black" /><rect x="1186" y="4870" width="137" height="40" style="fill:green;stroke:black;stroke-width:1" /><text x="1196" y="4880" font-size="8" style="fill:white">fotografia1.jpg</text><rect x="1120" y="4920" width="200" height="40" style="fill:white;stroke:black;stroke-width:1" /><text x="1130" y="4930" font-size="10" style="fill:blue">fotografia</text><path d="M1100 4890 C1120 4890 1100 4940 1120 4940" style="fill:transparent;stroke:black" /><rect x="1186" y="4920" width="137" height="40" style="fill:green;stroke:black;stroke-width:1" /><text x="1196" y="4930" font-size="8" style="fill:white">fotografia2.jpg</text><rect x="1120" y="4970" width="200" height="40" style="fill:white;stroke:black;stroke-width:1" /><text x="1130" y="4980" font-size="10" style="fill:blue">fotografia</text><path d="M1100 4890 C1120 4890 1100 4990 1120 4990" style="fill:transparent;stroke:black" /><rect x="1186" y="4970" width="137" height="40" style="fill:green;stroke:black;stroke-width:1" /><text x="1196" y="4980" font-size="8" style="fill:white">fotografia3.jpg</text><rect x="900" y="5070" width="200" height="40" style="fill:white;stroke:black;stroke-width:1" /><text x="910" y="5080" font-size="10" style="fill:blue">videos</text><path d="M880 4790 C900 4790 880 5090 900 5090" style="fill:transparent;stroke:black" /></svg>